# Blender 4.0.2
# www.blender.org
mtllib cabinets.mtl
o Cabinets
v 10.141057 0.007214 7.840568
v 10.141057 4.201989 7.840568
v 10.141057 0.007214 6.819917
v 10.141057 4.201989 6.819917
v 10.552130 0.007214 7.840568
v 10.552130 4.201989 7.840568
v 10.552130 0.007214 6.819917
v 10.552130 4.201989 6.819917
v 10.141057 0.007214 8.871424
v 10.141057 4.201989 8.871424
v 10.141057 0.007214 7.850774
v 10.141057 4.201989 7.850774
v 10.552130 0.007214 8.871424
v 10.552130 4.201989 8.871424
v 10.552130 0.007214 7.850774
v 10.552130 4.201989 7.850774
v 10.141057 0.007214 9.902281
v 10.141057 4.201989 9.902281
v 10.141057 0.007214 8.881631
v 10.141057 4.201989 8.881631
v 10.552130 0.007214 9.902281
v 10.552130 4.201989 9.902281
v 10.552130 0.007214 8.881631
v 10.552130 4.201989 8.881631
v 10.141057 0.007214 10.933138
v 10.141057 4.201989 10.933138
v 10.141057 0.007214 9.912487
v 10.141057 4.201989 9.912487
v 10.552130 0.007214 10.933138
v 10.552130 4.201989 10.933138
v 10.552130 0.007214 9.912487
v 10.552130 4.201989 9.912487
v 10.141057 4.758878 10.929904
v 10.141057 4.758879 6.813391
v 10.141057 4.208418 10.929904
v 10.141057 4.208419 6.813391
v 10.552130 4.758878 10.929904
v 10.552130 4.758879 6.813391
v 10.552130 4.208418 10.929904
v 10.552130 4.208419 6.813391
v 10.141057 2.361143 7.840568
v 10.141057 2.519264 7.840568
v 10.141057 2.519264 6.819917
v 10.141057 2.361142 6.819917
v 10.552130 2.519264 6.819917
v 10.552130 2.361142 6.819917
v 10.552130 2.519264 7.840568
v 10.552130 2.361142 7.840568
v 10.141057 0.007214 7.160134
v 10.141057 0.007214 7.500350
v 10.141057 4.201989 7.500350
v 10.141057 4.201989 7.160134
v 10.552130 0.007214 7.500350
v 10.552130 0.007214 7.160134
v 10.552130 4.201989 7.160134
v 10.552130 4.201989 7.500350
v 10.552130 2.361142 7.160134
v 10.552130 2.361142 7.500350
v 10.552130 2.519264 7.160134
v 10.552130 2.519264 7.500350
v 10.141057 2.366866 7.494627
v 10.141057 2.366866 7.165857
v 10.141057 2.513540 7.494627
v 10.141057 2.513540 7.165857
v 10.141057 2.361143 7.500350
v 10.141057 2.361143 7.160134
v 10.141057 2.519264 7.500350
v 10.141057 2.519264 7.160134
v 10.133234 2.361143 7.500350
v 10.133234 2.361143 7.160134
v 10.133234 2.519264 7.500350
v 10.133234 2.519264 7.160134
v 10.133234 2.366866 7.494627
v 10.133234 2.366866 7.165857
v 10.133234 2.513540 7.494627
v 10.133234 2.513540 7.165857
v 10.141057 1.173160 9.902281
v 10.141057 2.171977 9.902281
v 10.141057 2.171977 8.881631
v 10.141057 1.173160 8.881631
v 10.552130 2.171977 8.881631
v 10.552130 1.173160 8.881631
v 10.552130 2.171977 9.902281
v 10.552130 1.173160 9.902281
vn -1.0000 -0.0000 -0.0000
vn -0.0000 -0.0000 -1.0000
vn 1.0000 -0.0000 -0.0000
vn -0.0000 -0.0000 1.0000
vn -0.0000 -1.0000 -0.0000
vn -0.0000 1.0000 -0.0000
vt 0.543107 0.342219
vt 0.484176 0.388401
vt 0.484176 0.342219
vt 0.543107 0.526945
vt 0.484176 0.582745
vt 0.484176 0.526945
vt 0.543107 0.480764
vt 0.484176 0.480764
vt 0.543107 0.582745
vt 0.484176 0.638544
vt 0.531192 0.694344
vt 0.543107 0.750144
vt 0.531192 0.750144
vt 0.495448 0.694344
vt 0.507362 0.750144
vt 0.495448 0.750144
vt 0.458502 0.450688
vt 0.272812 0.592708
vt 0.272812 0.450688
vt 0.543107 0.638544
vt 0.396201 0.694344
vt 0.396201 0.638544
vt 0.368140 0.592708
vt 0.458502 0.884552
vt 0.368140 0.884552
vt 0.295352 0.592708
vt 0.331746 0.884552
vt 0.295352 0.884552
vt 0.422108 0.955561
vt 0.458502 0.884552
vt 0.458502 0.955561
vt 0.385714 0.955562
vt 0.422108 0.884552
vt 0.358275 0.431821
vt 0.429877 0.279208
vt 0.429877 0.431821
vt 0.583728 0.279208
vt 0.612726 0.430978
vt 0.583728 0.430978
vt 0.501479 0.279208
vt 0.501479 0.431821
vt 0.612726 0.279208
vt 0.641725 0.430978
vt 0.416272 0.508128
vt 0.445270 0.431821
vt 0.445270 0.508128
vt 0.474269 0.431821
vt 0.474269 0.508128
vt 0.539292 0.282801
vt 0.393194 0.404996
vt 0.393194 0.282801
vt 0.439562 0.404996
vt 0.468196 0.656102
vt 0.439562 0.656102
vt 0.468196 0.404996
vt 0.539292 0.656102
vt 0.468196 0.656102
vt 0.410928 0.404996
vt 0.410928 0.656102
vt 0.510658 0.717199
vt 0.539292 0.656101
vt 0.539292 0.717199
vt 0.482024 0.717199
vt 0.510658 0.656101
vt 0.596129 0.361925
vt 0.473075 0.495645
vt 0.473075 0.361925
vt 0.512130 0.495645
vt 0.536248 0.770434
vt 0.512130 0.770434
vt 0.596129 0.495645
vt 0.596130 0.770434
vt 0.488012 0.495645
vt 0.488012 0.770434
vt 0.572012 0.837294
vt 0.596130 0.770434
vt 0.596130 0.837294
vt 0.442825 0.731704
vt 0.471618 0.694344
vt 0.471618 0.731704
vt 0.478638 0.582745
vt 0.396201 0.582745
vt 0.478638 0.638544
vt 0.478638 0.480764
vt 0.396201 0.526945
vt 0.396201 0.480764
vt 0.478638 0.526945
vt 0.478638 0.342219
vt 0.396201 0.388401
vt 0.396201 0.342219
vt 0.478638 0.388401
vt 0.484176 0.249856
vt 0.478638 0.296038
vt 0.478638 0.249856
vt 0.582406 0.407248
vt 0.544357 0.450322
vt 0.544357 0.407248
vt 0.396201 0.296038
vt 0.396201 0.249856
vt 0.478638 0.434582
vt 0.484176 0.434582
vt 0.396201 0.434582
vt 0.483533 0.750144
vt 0.471618 0.750144
vt 0.483533 0.694344
vt 0.507362 0.694344
vt 0.519277 0.750144
vt 0.519277 0.694344
vt 0.543107 0.388401
vt 0.543107 0.434582
vt 0.543107 0.249856
vt 0.484176 0.296038
vt 0.543107 0.296038
vt 0.583890 0.406498
vt 0.542872 0.406498
vt 0.582406 0.450322
vt 0.583890 0.451072
vt 0.542872 0.451072
vt 0.387273 0.518991
vt 0.358275 0.518991
vt 0.542603 0.279208
vt 0.542603 0.431821
vt 0.387273 0.431821
vt 0.416272 0.518991
vt 0.583728 0.431821
vt 0.503267 0.508128
vt 0.503267 0.431821
vt 0.532265 0.431821
vt 0.543107 0.694344
vt 0.458502 0.592708
vt 0.458502 0.592708
vt 0.331746 0.592708
vt 0.385714 0.884552
vt 0.358275 0.279208
vt 0.641725 0.279208
vt 0.416272 0.431821
vt 0.539292 0.404996
vt 0.482024 0.656101
vt 0.596129 0.495645
vt 0.536248 0.495645
vt 0.572012 0.770434
vt 0.442825 0.694344
vt 0.532265 0.508128
s 0
usemtl wood_cabinet.002
f 52/1/1 43/2/1 68/3/1
f 4/4/2 45/5/2 43/6/2
f 56/7/3 47/6/3 60/8/3
f 6/9/4 42/10/4 47/5/4
f 53/11/5 1/12/5 50/13/5
f 51/14/6 6/15/6 56/16/6
f 10/17/1 11/18/1 9/19/1
f 12/20/2 15/21/2 11/22/2
f 16/23/3 13/24/3 15/25/3
f 14/26/4 9/27/4 13/28/4
f 15/29/5 9/30/5 11/31/5
f 12/32/6 14/33/6 16/29/6
f 18/34/1 79/35/1 78/36/1
f 20/37/2 81/38/2 79/39/2
f 24/36/3 83/40/3 81/41/3
f 22/42/4 78/43/4 83/38/4
f 23/44/5 17/45/5 19/46/5
f 20/46/6 22/47/6 24/48/6
f 26/49/1 27/50/1 25/51/1
f 28/52/2 31/53/2 27/54/2
f 32/55/3 29/56/3 31/57/3
f 30/58/4 25/54/4 29/59/4
f 31/60/5 25/61/5 27/62/5
f 28/63/6 30/64/6 32/60/6
f 34/65/1 35/66/1 33/67/1
f 36/68/5 39/69/5 35/70/5
f 39/69/3 38/71/3 37/72/3
f 38/73/6 33/70/6 37/74/6
f 39/75/4 33/76/4 35/77/4
f 36/78/2 38/79/2 40/80/2
f 48/81/4 1/22/4 5/82/4
f 47/5/4 41/83/4 48/81/4
f 58/84/3 5/85/3 53/86/3
f 60/8/3 48/87/3 58/84/3
f 44/87/2 7/82/2 3/85/2
f 43/6/2 46/81/2 44/87/2
f 66/88/1 3/89/1 49/90/1
f 66/88/1 43/2/1 44/91/1
f 42/92/1 65/93/1 41/94/1
f 41/94/1 50/98/1 1/99/1
f 65/93/1 49/90/1 50/98/1
f 45/2/3 57/100/3 46/91/3
f 59/101/3 58/84/3 57/100/3
f 46/91/3 54/102/3 7/89/3
f 57/100/3 53/86/3 54/102/3
f 4/79/6 55/103/6 8/104/6
f 52/105/6 56/16/6 55/103/6
f 7/106/5 49/107/5 3/15/5
f 54/108/5 50/13/5 49/107/5
f 8/109/3 59/101/3 45/2/3
f 55/110/3 60/8/3 59/101/3
f 2/111/1 67/112/1 42/92/1
f 51/113/1 68/3/1 67/112/1
f 84/34/4 17/119/4 21/120/4
f 82/41/3 21/121/3 23/122/3
f 80/123/2 23/124/2 19/119/2
f 77/122/1 19/37/1 17/125/1
f 82/126/6 77/47/6 84/127/6
f 78/128/5 81/126/5 83/127/5
f 52/1/1 4/109/1 43/2/1
f 4/4/2 8/9/2 45/5/2
f 56/7/3 6/4/3 47/6/3
f 6/9/4 2/20/4 42/10/4
f 53/11/5 5/129/5 1/12/5
f 51/14/6 2/106/6 6/15/6
f 10/17/1 12/130/1 11/18/1
f 12/20/2 16/129/2 15/21/2
f 16/23/3 14/131/3 13/24/3
f 14/26/4 10/132/4 9/27/4
f 15/29/5 13/33/5 9/30/5
f 12/32/6 10/133/6 14/33/6
f 18/34/1 20/134/1 79/35/1
f 20/37/2 24/42/2 81/38/2
f 24/36/3 22/35/3 83/40/3
f 22/42/4 18/135/4 78/43/4
f 23/44/5 21/136/5 17/45/5
f 20/46/6 18/45/6 22/47/6
f 26/49/1 28/137/1 27/50/1
f 28/52/2 32/55/2 31/53/2
f 32/55/3 30/137/3 29/56/3
f 30/58/4 26/52/4 25/54/4
f 31/60/5 29/64/5 25/61/5
f 28/63/6 26/138/6 30/64/6
f 34/65/1 36/139/1 35/66/1
f 36/68/5 40/140/5 39/69/5
f 39/69/3 40/140/3 38/71/3
f 38/73/6 34/68/6 33/70/6
f 39/75/4 37/141/4 33/76/4
f 36/78/2 34/142/2 38/79/2
f 48/81/4 41/83/4 1/22/4
f 47/5/4 42/10/4 41/83/4
f 58/84/3 48/87/3 5/85/3
f 60/8/3 47/6/3 48/87/3
f 44/87/2 46/81/2 7/82/2
f 43/6/2 45/5/2 46/81/2
f 66/88/1 44/91/1 3/89/1
f 66/88/1 68/3/1 43/2/1
f 42/92/1 67/112/1 65/93/1
f 41/94/1 65/93/1 50/98/1
f 65/93/1 66/88/1 49/90/1
f 45/2/3 59/101/3 57/100/3
f 59/101/3 60/8/3 58/84/3
f 46/91/3 57/100/3 54/102/3
f 57/100/3 58/84/3 53/86/3
f 4/79/6 52/105/6 55/103/6
f 52/105/6 51/14/6 56/16/6
f 7/106/5 54/108/5 49/107/5
f 54/108/5 53/11/5 50/13/5
f 8/109/3 55/110/3 59/101/3
f 55/110/3 56/7/3 60/8/3
f 2/111/1 51/113/1 67/112/1
f 51/113/1 52/1/1 68/3/1
f 84/34/4 77/123/4 17/119/4
f 82/41/3 84/40/3 21/121/3
f 80/123/2 82/136/2 23/124/2
f 77/122/1 80/121/1 19/37/1
f 82/126/6 80/48/6 77/47/6
f 78/128/5 79/143/5 81/126/5
usemtl window_frame2
f 63/95/1 62/96/1 61/97/1
f 62/96/6 73/97/6 61/97/6
f 61/97/2 75/95/2 63/95/2
f 67/114/4 69/115/4 65/115/4
f 63/95/5 76/116/5 64/116/5
f 74/96/1 69/115/1 73/97/1
f 75/95/1 72/117/1 76/116/1
f 73/97/1 71/114/1 75/95/1
f 76/116/1 70/118/1 74/96/1
f 66/118/2 72/117/2 68/117/2
f 68/117/6 71/114/6 67/114/6
f 64/116/4 74/96/4 62/96/4
f 65/115/5 70/118/5 66/118/5
f 63/95/1 64/116/1 62/96/1
f 62/96/6 74/96/6 73/97/6
f 61/97/2 73/97/2 75/95/2
f 67/114/4 71/114/4 69/115/4
f 63/95/5 75/95/5 76/116/5
f 74/96/1 70/118/1 69/115/1
f 75/95/1 71/114/1 72/117/1
f 73/97/1 69/115/1 71/114/1
f 76/116/1 72/117/1 70/118/1
f 66/118/2 70/118/2 72/117/2
f 68/117/6 72/117/6 71/114/6
f 64/116/4 76/116/4 74/96/4
f 65/115/5 69/115/5 70/118/5
