# Blender 4.0.2
# www.blender.org
mtllib glass.mtl
o Glass_Side
v 8.355218 4.754334 -1.935310
v 10.359070 4.754334 -1.935310
v 8.355218 0.602035 -1.935310
v 10.359070 0.602035 -1.935310
v 8.130280 4.777145 11.166318
v 9.589215 4.777145 11.166318
v 8.130280 0.234532 11.166318
v 9.589215 0.234532 11.166318
v 0.317571 4.777145 11.172004
v 1.776505 4.777145 11.172004
v 0.317571 0.199330 11.172004
v 1.776505 0.199330 11.172004
vn -0.0000 -0.0000 -1.0000
vn -0.0000 -0.0000 1.0000
vt 1.000000 0.000000
vt 0.000000 1.000000
vt 0.000000 0.000000
vt 1.000000 1.000000
s 0
usemtl Glass
f 2/1/1 3/2/1 1/3/1
f 6/1/2 5/3/2 7/2/2
f 10/1/2 9/3/2 11/2/2
f 2/1/1 4/4/1 3/2/1
f 6/1/2 7/2/2 8/4/2
f 10/1/2 11/2/2 12/4/2
