# Blender 4.0.2
# www.blender.org
mtllib glassframe.mtl
o Window_Frame_side
v 1.721448 0.158844 11.255578
v 1.721448 4.820875 11.255578
v 1.721448 0.158844 11.091251
v 1.721448 4.820875 11.091251
v 1.797913 0.158844 11.255578
v 1.797913 4.820875 11.255578
v 1.797913 0.158844 11.091251
v 1.797913 4.820875 11.091251
v 0.283919 0.158844 11.255578
v 0.283919 4.820875 11.255578
v 0.283919 0.158844 11.091251
v 0.283919 4.820875 11.091251
v 0.353904 0.158844 11.255578
v 0.353904 4.820875 11.255578
v 0.353904 0.158844 11.091251
v 0.353904 4.820875 11.091251
v 0.283919 0.253102 11.255578
v 0.283919 4.732153 11.255578
v 0.283919 4.732153 11.091251
v 0.283919 0.253102 11.091251
v 0.353904 4.720645 11.091251
v 0.353904 0.253102 11.091251
v 0.353904 4.732153 11.255578
v 0.353904 0.253102 11.255578
v 1.721448 0.253102 11.255578
v 1.721448 4.732153 11.255578
v 1.721448 4.720645 11.091251
v 1.721448 0.253102 11.091251
v 1.797913 4.720645 11.091251
v 1.797913 0.253102 11.091251
v 1.797913 4.732153 11.255578
v 1.797913 0.253102 11.255578
v 10.327094 0.563899 -1.860239
v 10.327094 4.798807 -1.860239
v 10.327094 0.563899 -2.024566
v 10.327094 4.798807 -2.024566
v 10.430785 0.563899 -1.860239
v 10.430785 4.798807 -1.860239
v 10.430785 0.563899 -2.024566
v 10.430785 4.798807 -2.024566
v 8.277048 0.563899 -1.860239
v 8.277048 4.798807 -1.860239
v 8.277048 0.563899 -2.024566
v 8.277048 4.798807 -2.024566
v 8.371953 0.563899 -1.860239
v 8.371953 4.798807 -1.860239
v 8.371953 0.563899 -2.024566
v 8.371953 4.798807 -2.024566
v 8.277048 0.658157 -1.860239
v 8.277048 4.710084 -1.860239
v 8.277048 4.710084 -2.024566
v 8.277048 0.658157 -2.024566
v 8.371953 4.710084 -2.024566
v 8.371953 0.658157 -2.024566
v 8.371953 4.710084 -1.860239
v 8.371953 0.658157 -1.860239
v 10.327094 0.658157 -1.860239
v 10.327094 4.710084 -1.860239
v 10.327094 4.710084 -2.024566
v 10.327094 0.658157 -2.024566
v 10.430785 4.710084 -2.024566
v 10.430785 0.658157 -2.024566
v 10.430785 4.710084 -1.860239
v 10.430785 0.658157 -1.860239
v 9.560147 0.175752 11.266647
v 9.560147 4.820875 11.266647
v 9.560147 0.175752 11.102321
v 9.560147 4.820875 11.102321
v 9.636612 0.175752 11.266647
v 9.636612 4.820875 11.266647
v 9.636612 0.175752 11.102321
v 9.636612 4.820875 11.102321
v 8.087219 0.175752 11.266647
v 8.087219 4.820875 11.266647
v 8.087219 0.175752 11.102321
v 8.087219 4.820875 11.102321
v 8.157205 0.175752 11.266647
v 8.157205 4.820875 11.266647
v 8.157205 0.175752 11.102321
v 8.157205 4.820875 11.102321
v 8.087219 0.270010 11.266647
v 8.087219 4.732153 11.266647
v 8.087219 4.732153 11.102321
v 8.087219 0.270010 11.102321
v 8.157205 4.720645 11.102321
v 8.157205 0.270010 11.102321
v 8.157205 4.732153 11.266647
v 8.157205 0.270010 11.266647
v 9.560147 0.270010 11.266647
v 9.560147 4.732153 11.266647
v 9.560147 4.720645 11.102321
v 9.560147 0.270010 11.102321
v 9.636612 4.720645 11.102321
v 9.636612 0.270010 11.102321
v 9.636612 4.732153 11.266647
v 9.636612 0.270010 11.266647
vn 1.0000 -0.0000 -0.0000
vn -0.0000 -0.0000 -1.0000
vn -0.0000 -0.0000 1.0000
vn -0.0000 -1.0000 -0.0000
vn -0.0000 1.0000 -0.0000
vn -1.0000 -0.0000 -0.0000
vn -0.0000 -0.9976 0.0699
vt 0.541667 0.000000
vt 0.541667 0.250000
vt 0.625000 0.250000
vt 0.541667 0.500000
vt 0.625000 0.500000
vt 0.541667 0.750000
vt 0.625000 0.750000
vt 0.541667 1.000000
vt 0.375000 0.500000
vt 0.125000 0.750000
vt 0.125000 0.500000
vt 0.875000 0.500000
vt 0.625000 0.000000
vt 0.458333 0.750000
vt 0.375000 1.000000
vt 0.375000 0.750000
vt 0.458333 1.000000
vt 0.458333 0.500000
vt 0.458333 0.250000
vt 0.375000 0.250000
vt 0.458333 0.000000
vt 0.375000 0.000000
vt 0.625000 1.000000
vt 0.875000 0.750000
s 0
usemtl window_frame
f 26/1/1 27/2/1 4/3/1
f 4/3/2 29/4/2 27/2/2
f 8/5/1 31/6/1 29/4/1
f 6/7/3 26/8/3 31/6/3
f 7/9/4 1/10/4 3/11/4
f 4/12/5 6/7/5 8/5/5
f 10/13/6 19/2/6 18/1/6
f 19/2/2 16/5/2 21/4/2
f 16/5/6 21/4/6 23/6/6
f 14/7/3 18/8/3 23/6/3
f 15/9/4 9/10/4 11/11/4
f 12/12/5 14/7/5 16/5/5
f 24/14/3 9/15/3 13/16/3
f 23/6/3 17/17/3 24/14/3
f 22/18/6 15/9/6 13/16/6
f 21/4/1 24/14/1 22/18/1
f 20/19/2 15/9/2 11/20/2
f 20/19/2 21/4/2 22/18/2
f 17/21/6 11/20/6 9/22/6
f 18/1/6 20/19/6 17/21/6
f 32/14/3 1/15/3 5/16/3
f 31/6/3 25/17/3 32/14/3
f 30/18/1 5/16/1 7/9/1
f 29/4/1 32/14/1 30/18/1
f 28/19/2 7/9/2 3/20/2
f 27/2/2 30/18/2 28/19/2
f 25/21/1 1/22/1 3/20/1
f 25/21/6 27/2/6 28/19/6
f 24/14/5 28/19/5 22/18/5
f 15/9/2 28/19/2 3/20/2
f 13/16/3 1/15/3 25/21/3
f 14/7/3 26/1/3 2/13/3
f 21/4/7 26/1/7 23/6/7
f 4/3/2 21/4/2 16/5/2
f 4/3/5 14/7/5 2/13/5
f 3/11/4 1/10/4 13/16/4
f 34/13/1 58/1/1 59/2/1
f 36/3/2 61/4/2 59/2/2
f 40/5/1 63/6/1 61/4/1
f 38/7/3 58/8/3 63/6/3
f 39/9/4 33/10/4 35/11/4
f 36/12/5 38/7/5 40/5/5
f 42/13/6 51/2/6 50/1/6
f 44/3/2 53/4/2 51/2/2
f 48/5/1 55/6/1 53/4/1
f 46/7/3 50/8/3 55/6/3
f 47/9/4 41/10/4 43/11/4
f 44/12/5 46/7/5 48/5/5
f 56/14/3 41/15/3 45/16/3
f 55/6/3 49/17/3 56/14/3
f 54/18/1 45/16/1 47/9/1
f 53/4/1 56/14/1 54/18/1
f 52/19/2 47/9/2 43/20/2
f 51/2/2 54/18/2 52/19/2
f 49/21/6 43/20/6 41/22/6
f 50/1/6 52/19/6 49/21/6
f 64/14/3 33/15/3 37/16/3
f 63/6/3 57/17/3 64/14/3
f 62/18/1 37/16/1 39/9/1
f 61/4/1 64/14/1 62/18/1
f 60/19/2 39/9/2 35/20/2
f 59/2/2 62/18/2 60/19/2
f 57/21/1 33/22/1 35/20/1
f 58/1/6 60/19/6 57/21/6
f 56/14/5 60/19/5 54/18/5
f 47/9/2 60/19/2 35/20/2
f 45/16/3 33/15/3 57/21/3
f 46/7/3 58/1/3 34/13/3
f 53/4/4 58/1/4 55/6/4
f 36/3/2 53/4/2 48/5/2
f 36/3/5 46/7/5 34/13/5
f 35/11/4 33/10/4 45/16/4
f 90/1/1 91/2/1 68/3/1
f 68/3/2 93/4/2 91/2/2
f 72/5/1 95/6/1 93/4/1
f 70/7/3 90/8/3 95/6/3
f 71/9/4 65/10/4 67/11/4
f 68/12/5 70/7/5 72/5/5
f 74/13/6 83/2/6 82/1/6
f 83/2/2 80/5/2 85/4/2
f 80/5/1 87/6/1 85/4/1
f 78/7/3 82/8/3 87/6/3
f 79/9/4 73/10/4 75/11/4
f 76/12/5 78/7/5 80/5/5
f 88/14/3 73/15/3 77/16/3
f 87/6/3 81/17/3 88/14/3
f 86/18/1 77/16/1 79/9/1
f 85/4/1 88/14/1 86/18/1
f 84/19/2 79/9/2 75/20/2
f 84/19/2 85/4/2 86/18/2
f 81/21/6 75/20/6 73/22/6
f 82/1/6 84/19/6 81/21/6
f 96/14/3 65/15/3 69/16/3
f 95/6/3 89/17/3 96/14/3
f 94/18/1 69/16/1 71/9/1
f 93/4/1 96/14/1 94/18/1
f 92/19/2 71/9/2 67/20/2
f 91/2/2 94/18/2 92/19/2
f 89/21/1 65/22/1 67/20/1
f 89/21/6 91/2/6 92/19/6
f 88/14/5 92/19/5 86/18/5
f 79/9/2 92/19/2 67/20/2
f 77/16/3 65/15/3 89/21/3
f 78/7/3 90/1/3 66/13/3
f 85/4/7 90/1/7 87/6/7
f 68/3/2 85/4/2 80/5/2
f 68/3/5 78/7/5 66/13/5
f 67/11/4 65/10/4 77/16/4
f 26/1/1 4/3/1 2/13/1
f 4/3/2 8/5/2 29/4/2
f 8/5/1 6/7/1 31/6/1
f 6/7/3 2/23/3 26/8/3
f 7/9/4 5/16/4 1/10/4
f 4/12/5 2/24/5 6/7/5
f 10/13/6 12/3/6 19/2/6
f 19/2/2 12/3/2 16/5/2
f 16/5/6 23/6/6 14/7/6
f 14/7/3 10/23/3 18/8/3
f 15/9/4 13/16/4 9/10/4
f 12/12/5 10/24/5 14/7/5
f 24/14/3 17/17/3 9/15/3
f 23/6/3 18/8/3 17/17/3
f 22/18/6 13/16/6 24/14/6
f 21/4/1 23/6/1 24/14/1
f 20/19/2 22/18/2 15/9/2
f 20/19/2 19/2/2 21/4/2
f 17/21/6 20/19/6 11/20/6
f 18/1/6 19/2/6 20/19/6
f 32/14/3 25/17/3 1/15/3
f 31/6/3 26/8/3 25/17/3
f 30/18/1 32/14/1 5/16/1
f 29/4/1 31/6/1 32/14/1
f 28/19/2 30/18/2 7/9/2
f 27/2/2 29/4/2 30/18/2
f 25/21/1 3/20/1 28/19/1
f 25/21/6 26/1/6 27/2/6
f 24/14/5 25/21/5 28/19/5
f 15/9/2 22/18/2 28/19/2
f 13/16/3 25/21/3 24/14/3
f 14/7/3 23/6/3 26/1/3
f 21/4/7 27/2/7 26/1/7
f 4/3/2 27/2/2 21/4/2
f 4/3/5 16/5/5 14/7/5
f 3/11/4 13/16/4 15/9/4
f 34/13/1 59/2/1 36/3/1
f 36/3/2 40/5/2 61/4/2
f 40/5/1 38/7/1 63/6/1
f 38/7/3 34/23/3 58/8/3
f 39/9/4 37/16/4 33/10/4
f 36/12/5 34/24/5 38/7/5
f 42/13/6 44/3/6 51/2/6
f 44/3/2 48/5/2 53/4/2
f 48/5/1 46/7/1 55/6/1
f 46/7/3 42/23/3 50/8/3
f 47/9/4 45/16/4 41/10/4
f 44/12/5 42/24/5 46/7/5
f 56/14/3 49/17/3 41/15/3
f 55/6/3 50/8/3 49/17/3
f 54/18/1 56/14/1 45/16/1
f 53/4/1 55/6/1 56/14/1
f 52/19/2 54/18/2 47/9/2
f 51/2/2 53/4/2 54/18/2
f 49/21/6 52/19/6 43/20/6
f 50/1/6 51/2/6 52/19/6
f 64/14/3 57/17/3 33/15/3
f 63/6/3 58/8/3 57/17/3
f 62/18/1 64/14/1 37/16/1
f 61/4/1 63/6/1 64/14/1
f 60/19/2 62/18/2 39/9/2
f 59/2/2 61/4/2 62/18/2
f 57/21/1 35/20/1 60/19/1
f 58/1/6 59/2/6 60/19/6
f 56/14/5 57/21/5 60/19/5
f 47/9/2 54/18/2 60/19/2
f 45/16/3 57/21/3 56/14/3
f 46/7/3 55/6/3 58/1/3
f 53/4/4 59/2/4 58/1/4
f 36/3/2 59/2/2 53/4/2
f 36/3/5 48/5/5 46/7/5
f 35/11/4 45/16/4 47/9/4
f 90/1/1 68/3/1 66/13/1
f 68/3/2 72/5/2 93/4/2
f 72/5/1 70/7/1 95/6/1
f 70/7/3 66/23/3 90/8/3
f 71/9/4 69/16/4 65/10/4
f 68/12/5 66/24/5 70/7/5
f 74/13/6 76/3/6 83/2/6
f 83/2/2 76/3/2 80/5/2
f 80/5/1 78/7/1 87/6/1
f 78/7/3 74/23/3 82/8/3
f 79/9/4 77/16/4 73/10/4
f 76/12/5 74/24/5 78/7/5
f 88/14/3 81/17/3 73/15/3
f 87/6/3 82/8/3 81/17/3
f 86/18/1 88/14/1 77/16/1
f 85/4/1 87/6/1 88/14/1
f 84/19/2 86/18/2 79/9/2
f 84/19/2 83/2/2 85/4/2
f 81/21/6 84/19/6 75/20/6
f 82/1/6 83/2/6 84/19/6
f 96/14/3 89/17/3 65/15/3
f 95/6/3 90/8/3 89/17/3
f 94/18/1 96/14/1 69/16/1
f 93/4/1 95/6/1 96/14/1
f 92/19/2 94/18/2 71/9/2
f 91/2/2 93/4/2 94/18/2
f 89/21/1 67/20/1 92/19/1
f 89/21/6 90/1/6 91/2/6
f 88/14/5 89/21/5 92/19/5
f 79/9/2 86/18/2 92/19/2
f 77/16/3 89/21/3 88/14/3
f 78/7/3 87/6/3 90/1/3
f 85/4/7 91/2/7 90/1/7
f 68/3/2 91/2/2 85/4/2
f 68/3/5 80/5/5 78/7/5
f 67/11/4 77/16/4 79/9/4
